<?xml version="1.0" encoding="UTF-8" standalone="no"?>
<!DOCTYPE svg PUBLIC "-//W3C//DTD SVG 1.1//EN"
 "http://www.w3.org/Graphics/SVG/1.1/DTD/svg11.dtd">
<!-- Generated by graphviz version 14.1.1 (20251213.1925)
 -->
<!-- Title: import_graph Pages: 1 -->
<svg width="602pt" height="455pt"
 viewBox="0.00 0.00 602.00 455.00" xmlns="http://www.w3.org/2000/svg" xmlns:xlink="http://www.w3.org/1999/xlink">
<g id="graph0" class="graph" transform="scale(1 1) rotate(0) translate(4 451)">
<title>import_graph</title>
<polygon fill="white" stroke="none" points="-4,4 -4,-451 597.5,-451 597.5,4 -4,4"/>
<!-- src.eda.audit -->
<g id="node1" class="node">
<title>src.eda.audit</title>
<polygon fill="none" stroke="black" points="279.5,-247 194.5,-247 194.5,-211 279.5,-211 279.5,-247"/>
<text xml:space="preserve" text-anchor="middle" x="237" y="-223.95" font-family="Times,serif" font-size="14.00">src.eda.audit</text>
</g>
<!-- src.utils.io -->
<g id="node2" class="node">
<title>src.utils.io</title>
<polygon fill="none" stroke="black" points="441.38,-117 368.38,-117 368.38,-81 441.38,-81 441.38,-117"/>
<text xml:space="preserve" text-anchor="middle" x="404.88" y="-93.95" font-family="Times,serif" font-size="14.00">src.utils.io</text>
</g>
<!-- src.eda.audit&#45;&gt;src.utils.io -->
<g id="edge1" class="edge">
<title>src.eda.audit&#45;&gt;src.utils.io</title>
<path fill="none" stroke="black" d="M261.41,-210.65C290.23,-188.07 339.3,-149.61 371.66,-124.25"/>
<polygon fill="black" stroke="black" points="373.41,-127.32 379.12,-118.4 369.09,-121.81 373.41,-127.32"/>
</g>
<!-- src.utils.paths -->
<g id="node3" class="node">
<title>src.utils.paths</title>
<polygon fill="none" stroke="black" points="593.5,-201 502.5,-201 502.5,-165 593.5,-165 593.5,-201"/>
<text xml:space="preserve" text-anchor="middle" x="548" y="-177.95" font-family="Times,serif" font-size="14.00">src.utils.paths</text>
</g>
<!-- src.eda.audit&#45;&gt;src.utils.paths -->
<g id="edge2" class="edge">
<title>src.eda.audit&#45;&gt;src.utils.paths</title>
<path fill="none" stroke="black" d="M279.76,-223.57C325.62,-217.52 401.4,-207.22 466.5,-197 474.5,-195.75 482.93,-194.35 491.2,-192.95"/>
<polygon fill="black" stroke="black" points="491.58,-196.44 500.84,-191.29 490.39,-189.54 491.58,-196.44"/>
</g>
<!-- src.utils.reporting -->
<g id="node4" class="node">
<title>src.utils.reporting</title>
<polygon fill="none" stroke="black" points="460.88,-285 348.88,-285 348.88,-249 460.88,-249 460.88,-285"/>
<text xml:space="preserve" text-anchor="middle" x="404.88" y="-261.95" font-family="Times,serif" font-size="14.00">src.utils.reporting</text>
</g>
<!-- src.eda.audit&#45;&gt;src.utils.reporting -->
<g id="edge3" class="edge">
<title>src.eda.audit&#45;&gt;src.utils.reporting</title>
<path fill="none" stroke="black" d="M279.86,-238.59C297.35,-242.6 318.1,-247.35 337.58,-251.81"/>
<polygon fill="black" stroke="black" points="336.54,-255.17 347.07,-253.99 338.11,-248.34 336.54,-255.17"/>
</g>
<!-- src.utils.io&#45;&gt;src.utils.paths -->
<g id="edge16" class="edge">
<title>src.utils.io&#45;&gt;src.utils.paths</title>
<path fill="none" stroke="black" d="M441.75,-117.27C449.96,-121.63 458.59,-126.37 466.5,-131 481.06,-139.52 496.71,-149.45 510.31,-158.33"/>
<polygon fill="black" stroke="black" points="508.26,-161.18 518.54,-163.75 512.11,-155.33 508.26,-161.18"/>
</g>
<!-- src.eda.collinearity -->
<g id="node5" class="node">
<title>src.eda.collinearity</title>
<polygon fill="none" stroke="black" points="296.75,-150 177.25,-150 177.25,-114 296.75,-114 296.75,-150"/>
<text xml:space="preserve" text-anchor="middle" x="237" y="-126.95" font-family="Times,serif" font-size="14.00">src.eda.collinearity</text>
</g>
<!-- src.eda.collinearity&#45;&gt;src.utils.io -->
<g id="edge4" class="edge">
<title>src.eda.collinearity&#45;&gt;src.utils.io</title>
<path fill="none" stroke="black" d="M296.95,-120.27C316.69,-116.35 338.42,-112.02 357.1,-108.31"/>
<polygon fill="black" stroke="black" points="357.68,-111.76 366.81,-106.37 356.32,-104.89 357.68,-111.76"/>
</g>
<!-- src.eda.collinearity&#45;&gt;src.utils.paths -->
<g id="edge5" class="edge">
<title>src.eda.collinearity&#45;&gt;src.utils.paths</title>
<path fill="none" stroke="black" d="M297.21,-141.39C343.36,-148.76 409.03,-159.35 466.5,-169 474.48,-170.34 482.91,-171.78 491.18,-173.21"/>
<polygon fill="black" stroke="black" points="490.37,-176.62 500.82,-174.87 491.56,-169.72 490.37,-176.62"/>
</g>
<!-- src.eda.run_eda -->
<g id="node6" class="node">
<title>src.eda.run_eda</title>
<polygon fill="none" stroke="black" points="116.12,-201 14.62,-201 14.62,-165 116.12,-165 116.12,-201"/>
<text xml:space="preserve" text-anchor="middle" x="65.38" y="-177.95" font-family="Times,serif" font-size="14.00">src.eda.run_eda</text>
</g>
<!-- src.eda.run_eda&#45;&gt;src.eda.audit -->
<g id="edge6" class="edge">
<title>src.eda.run_eda&#45;&gt;src.eda.audit</title>
<path fill="none" stroke="black" d="M116.35,-196.55C137.41,-202.26 161.93,-208.91 183.27,-214.7"/>
<polygon fill="black" stroke="black" points="182.08,-218 192.64,-217.24 183.91,-211.25 182.08,-218"/>
</g>
<!-- src.eda.run_eda&#45;&gt;src.utils.paths -->
<g id="edge8" class="edge">
<title>src.eda.run_eda&#45;&gt;src.utils.paths</title>
<path fill="none" stroke="black" d="M116.45,-183C206.81,-183 396.5,-183 491.01,-183"/>
<polygon fill="black" stroke="black" points="490.81,-186.5 500.81,-183 490.81,-179.5 490.81,-186.5"/>
</g>
<!-- src.eda.run_eda&#45;&gt;src.eda.collinearity -->
<g id="edge7" class="edge">
<title>src.eda.run_eda&#45;&gt;src.eda.collinearity</title>
<path fill="none" stroke="black" d="M116.35,-167.97C131.9,-163.3 149.35,-158.05 166,-153.05"/>
<polygon fill="black" stroke="black" points="166.79,-156.46 175.36,-150.23 164.77,-149.76 166.79,-156.46"/>
</g>
<!-- src.models.baseline -->
<g id="node7" class="node">
<title>src.models.baseline</title>
<polygon fill="none" stroke="black" points="466.5,-447 343.25,-447 343.25,-411 466.5,-411 466.5,-447"/>
<text xml:space="preserve" text-anchor="middle" x="404.88" y="-423.95" font-family="Times,serif" font-size="14.00">src.models.baseline</text>
</g>
<!-- src.models.baseline&#45;&gt;src.utils.paths -->
<g id="edge9" class="edge">
<title>src.models.baseline&#45;&gt;src.utils.paths</title>
<path fill="none" stroke="black" d="M456.38,-410.56C460.07,-408.04 463.51,-405.2 466.5,-402 517.3,-347.69 536.64,-258.64 543.52,-212.61"/>
<polygon fill="black" stroke="black" points="546.96,-213.24 544.87,-202.86 540.03,-212.28 546.96,-213.24"/>
</g>
<!-- src.models.elasticity -->
<g id="node8" class="node">
<title>src.models.elasticity</title>
<polygon fill="none" stroke="black" points="300.88,-92 173.12,-92 173.12,-56 300.88,-56 300.88,-92"/>
<text xml:space="preserve" text-anchor="middle" x="237" y="-68.95" font-family="Times,serif" font-size="14.00">src.models.elasticity</text>
</g>
<!-- src.models.elasticity&#45;&gt;src.utils.io -->
<g id="edge10" class="edge">
<title>src.models.elasticity&#45;&gt;src.utils.io</title>
<path fill="none" stroke="black" d="M301.18,-83.52C319.81,-86.33 339.85,-89.35 357.23,-91.97"/>
<polygon fill="black" stroke="black" points="356.33,-95.37 366.74,-93.4 357.37,-88.45 356.33,-95.37"/>
</g>
<!-- src.models.elasticity&#45;&gt;src.utils.paths -->
<g id="edge11" class="edge">
<title>src.models.elasticity&#45;&gt;src.utils.paths</title>
<path fill="none" stroke="black" d="M301.22,-58.37C349.21,-49.95 415.43,-45.95 466.5,-72 500.05,-89.11 522.88,-127.47 535.42,-154.27"/>
<polygon fill="black" stroke="black" points="532.14,-155.51 539.41,-163.22 538.54,-152.67 532.14,-155.51"/>
</g>
<!-- src.models.eval -->
<g id="node9" class="node">
<title>src.models.eval</title>
<polygon fill="none" stroke="black" points="455.62,-393 354.12,-393 354.12,-357 455.62,-357 455.62,-393"/>
<text xml:space="preserve" text-anchor="middle" x="404.88" y="-369.95" font-family="Times,serif" font-size="14.00">src.models.eval</text>
</g>
<!-- src.models.eval&#45;&gt;src.utils.paths -->
<g id="edge12" class="edge">
<title>src.models.eval&#45;&gt;src.utils.paths</title>
<path fill="none" stroke="black" d="M455.44,-356.61C459.43,-354.06 463.18,-351.2 466.5,-348 506.02,-309.84 528.81,-248.28 539.49,-212.12"/>
<polygon fill="black" stroke="black" points="542.77,-213.36 542.12,-202.79 536.04,-211.46 542.77,-213.36"/>
</g>
<!-- src.models.splits -->
<g id="node10" class="node">
<title>src.models.splits</title>
<polygon fill="none" stroke="black" points="458.62,-339 351.12,-339 351.12,-303 458.62,-303 458.62,-339"/>
<text xml:space="preserve" text-anchor="middle" x="404.88" y="-315.95" font-family="Times,serif" font-size="14.00">src.models.splits</text>
</g>
<!-- src.models.splits&#45;&gt;src.utils.paths -->
<g id="edge13" class="edge">
<title>src.models.splits&#45;&gt;src.utils.paths</title>
<path fill="none" stroke="black" d="M453.95,-302.51C458.38,-299.95 462.65,-297.12 466.5,-294 494.82,-271.05 518.06,-235.84 532.17,-211.25"/>
<polygon fill="black" stroke="black" points="535.09,-213.19 536.91,-202.75 528.98,-209.78 535.09,-213.19"/>
</g>
<!-- src.processing.pipeline -->
<g id="node11" class="node">
<title>src.processing.pipeline</title>
<polygon fill="none" stroke="black" points="307.25,-36 166.75,-36 166.75,0 307.25,0 307.25,-36"/>
<text xml:space="preserve" text-anchor="middle" x="237" y="-12.95" font-family="Times,serif" font-size="14.00">src.processing.pipeline</text>
</g>
<!-- src.processing.pipeline&#45;&gt;src.utils.io -->
<g id="edge14" class="edge">
<title>src.processing.pipeline&#45;&gt;src.utils.io</title>
<path fill="none" stroke="black" d="M283.72,-36.41C291.63,-39.8 299.72,-43.41 307.25,-47 325.33,-55.63 344.87,-65.94 361.61,-75.1"/>
<polygon fill="black" stroke="black" points="359.86,-78.14 370.3,-79.9 363.24,-72.01 359.86,-78.14"/>
</g>
<!-- src.processing.pipeline&#45;&gt;src.utils.paths -->
<g id="edge15" class="edge">
<title>src.processing.pipeline&#45;&gt;src.utils.paths</title>
<path fill="none" stroke="black" d="M307.66,-11.93C355.98,-11.15 419.79,-17.27 466.5,-48 504.47,-72.98 527.11,-122.59 538.29,-154.22"/>
<polygon fill="black" stroke="black" points="534.92,-155.17 541.42,-163.54 541.56,-152.95 534.92,-155.17"/>
</g>
<!-- tests.test_audit -->
<g id="node12" class="node">
<title>tests.test_audit</title>
<polygon fill="none" stroke="black" points="113.5,-255 17.25,-255 17.25,-219 113.5,-219 113.5,-255"/>
<text xml:space="preserve" text-anchor="middle" x="65.38" y="-231.95" font-family="Times,serif" font-size="14.00">tests.test_audit</text>
</g>
<!-- tests.test_audit&#45;&gt;src.eda.audit -->
<g id="edge17" class="edge">
<title>tests.test_audit&#45;&gt;src.eda.audit</title>
<path fill="none" stroke="black" d="M113.63,-234.77C135.16,-233.76 160.75,-232.55 182.94,-231.5"/>
<polygon fill="black" stroke="black" points="182.87,-235.01 192.69,-231.04 182.54,-228.02 182.87,-235.01"/>
</g>
<!-- tests.test_baseline -->
<g id="node13" class="node">
<title>tests.test_baseline</title>
<polygon fill="none" stroke="black" points="293.75,-447 180.25,-447 180.25,-411 293.75,-411 293.75,-447"/>
<text xml:space="preserve" text-anchor="middle" x="237" y="-423.95" font-family="Times,serif" font-size="14.00">tests.test_baseline</text>
</g>
<!-- tests.test_baseline&#45;&gt;src.models.baseline -->
<g id="edge18" class="edge">
<title>tests.test_baseline&#45;&gt;src.models.baseline</title>
<path fill="none" stroke="black" d="M294.16,-429C306.17,-429 319.03,-429 331.56,-429"/>
<polygon fill="black" stroke="black" points="331.43,-432.5 341.43,-429 331.43,-425.5 331.43,-432.5"/>
</g>
<!-- tests.test_collinearity -->
<g id="node14" class="node">
<title>tests.test_collinearity</title>
<polygon fill="none" stroke="black" points="130.75,-147 0,-147 0,-111 130.75,-111 130.75,-147"/>
<text xml:space="preserve" text-anchor="middle" x="65.38" y="-123.95" font-family="Times,serif" font-size="14.00">tests.test_collinearity</text>
</g>
<!-- tests.test_collinearity&#45;&gt;src.eda.collinearity -->
<g id="edge19" class="edge">
<title>tests.test_collinearity&#45;&gt;src.eda.collinearity</title>
<path fill="none" stroke="black" d="M130.99,-130.14C142.29,-130.34 154.11,-130.55 165.56,-130.75"/>
<polygon fill="black" stroke="black" points="165.29,-134.25 175.35,-130.93 165.41,-127.25 165.29,-134.25"/>
</g>
<!-- tests.test_elasticity -->
<g id="node15" class="node">
<title>tests.test_elasticity</title>
<polygon fill="none" stroke="black" points="124.38,-92 6.38,-92 6.38,-56 124.38,-56 124.38,-92"/>
<text xml:space="preserve" text-anchor="middle" x="65.38" y="-68.95" font-family="Times,serif" font-size="14.00">tests.test_elasticity</text>
</g>
<!-- tests.test_elasticity&#45;&gt;src.models.elasticity -->
<g id="edge20" class="edge">
<title>tests.test_elasticity&#45;&gt;src.models.elasticity</title>
<path fill="none" stroke="black" d="M124.75,-74C136.64,-74 149.29,-74 161.65,-74"/>
<polygon fill="black" stroke="black" points="161.37,-77.5 171.37,-74 161.37,-70.5 161.37,-77.5"/>
</g>
<!-- tests.test_eval -->
<g id="node16" class="node">
<title>tests.test_eval</title>
<polygon fill="none" stroke="black" points="282.88,-393 191.12,-393 191.12,-357 282.88,-357 282.88,-393"/>
<text xml:space="preserve" text-anchor="middle" x="237" y="-369.95" font-family="Times,serif" font-size="14.00">tests.test_eval</text>
</g>
<!-- tests.test_eval&#45;&gt;src.models.eval -->
<g id="edge21" class="edge">
<title>tests.test_eval&#45;&gt;src.models.eval</title>
<path fill="none" stroke="black" d="M283.33,-375C301.53,-375 322.8,-375 342.36,-375"/>
<polygon fill="black" stroke="black" points="342.13,-378.5 352.13,-375 342.13,-371.5 342.13,-378.5"/>
</g>
<!-- tests.test_pipeline -->
<g id="node17" class="node">
<title>tests.test_pipeline</title>
<polygon fill="none" stroke="black" points="121.75,-36 9,-36 9,0 121.75,0 121.75,-36"/>
<text xml:space="preserve" text-anchor="middle" x="65.38" y="-12.95" font-family="Times,serif" font-size="14.00">tests.test_pipeline</text>
</g>
<!-- tests.test_pipeline&#45;&gt;src.processing.pipeline -->
<g id="edge22" class="edge">
<title>tests.test_pipeline&#45;&gt;src.processing.pipeline</title>
<path fill="none" stroke="black" d="M121.92,-18C132.57,-18 143.92,-18 155.18,-18"/>
<polygon fill="black" stroke="black" points="154.87,-21.5 164.87,-18 154.87,-14.5 154.87,-21.5"/>
</g>
<!-- tests.test_splits -->
<g id="node18" class="node">
<title>tests.test_splits</title>
<polygon fill="none" stroke="black" points="285.88,-339 188.12,-339 188.12,-303 285.88,-303 285.88,-339"/>
<text xml:space="preserve" text-anchor="middle" x="237" y="-315.95" font-family="Times,serif" font-size="14.00">tests.test_splits</text>
</g>
<!-- tests.test_splits&#45;&gt;src.models.splits -->
<g id="edge23" class="edge">
<title>tests.test_splits&#45;&gt;src.models.splits</title>
<path fill="none" stroke="black" d="M285.98,-321C302.62,-321 321.56,-321 339.31,-321"/>
<polygon fill="black" stroke="black" points="339.26,-324.5 349.26,-321 339.26,-317.5 339.26,-324.5"/>
</g>
</g>
</svg>
